<mxfile host="app.diagrams.net" agent="Mozilla/5.0 (Windows NT 10.0; Win64; x64) AppleWebKit/537.36 (KHTML, like Gecko) Chrome/134.0.0.0 Safari/537.36 Edg/134.0.0.0" version="26.2.3">
  <diagram name="Page-1" id="eMXHJkmgkza-26GK9PLf">
    <mxGraphModel dx="2550" dy="1140" grid="1" gridSize="10" guides="1" tooltips="1" connect="1" arrows="1" fold="1" page="1" pageScale="1" pageWidth="827" pageHeight="1169" math="0" shadow="0">
      <root>
        <mxCell id="0" />
        <mxCell id="1" parent="0" />
        <mxCell id="VynpJV-AGfuolloux9Fp-5" value="" style="ellipse;html=1;shape=startState;fillColor=#000000;strokeColor=#ff0000;" parent="1" vertex="1">
          <mxGeometry x="195" width="40" height="40" as="geometry" />
        </mxCell>
        <mxCell id="VynpJV-AGfuolloux9Fp-6" value="" style="edgeStyle=orthogonalEdgeStyle;html=1;verticalAlign=bottom;endArrow=open;endSize=8;strokeColor=#ff0000;rounded=0;" parent="1" source="VynpJV-AGfuolloux9Fp-5" edge="1">
          <mxGeometry relative="1" as="geometry">
            <mxPoint x="215" y="90" as="targetPoint" />
          </mxGeometry>
        </mxCell>
        <mxCell id="VynpJV-AGfuolloux9Fp-7" value="" style="ellipse;html=1;shape=endState;fillColor=#000000;strokeColor=#ff0000;" parent="1" vertex="1">
          <mxGeometry x="455" y="940" width="50" height="50" as="geometry" />
        </mxCell>
        <mxCell id="VynpJV-AGfuolloux9Fp-8" value="&lt;span style=&quot;color: rgb(64, 64, 64); font-family: Inter, system-ui, -apple-system, BlinkMacSystemFont, &amp;quot;Segoe UI&amp;quot;, Roboto, &amp;quot;Noto Sans&amp;quot;, Ubuntu, Cantarell, &amp;quot;Helvetica Neue&amp;quot;, Oxygen, &amp;quot;Open Sans&amp;quot;, sans-serif; font-size: 16.002px; text-align: left;&quot;&gt;Accéder à la page du service&lt;/span&gt;&lt;div&gt;&lt;div style=&quot;text-align: left;&quot;&gt;&lt;br&gt;&lt;/div&gt;&lt;div&gt;&lt;br&gt;&lt;/div&gt;&lt;/div&gt;" style="rounded=1;whiteSpace=wrap;html=1;arcSize=40;fontColor=#000000;fillColor=#ffffc0;strokeColor=#ff0000;" parent="1" vertex="1">
          <mxGeometry x="135" y="260" width="160" height="80" as="geometry" />
        </mxCell>
        <mxCell id="VynpJV-AGfuolloux9Fp-14" value="&lt;span style=&quot;color: rgb(64, 64, 64); font-family: Inter, system-ui, -apple-system, BlinkMacSystemFont, &amp;quot;Segoe UI&amp;quot;, Roboto, &amp;quot;Noto Sans&amp;quot;, Ubuntu, Cantarell, &amp;quot;Helvetica Neue&amp;quot;, Oxygen, &amp;quot;Open Sans&amp;quot;, sans-serif; font-size: 16.002px; text-align: left;&quot;&gt;Utilisateur connecté ?&lt;/span&gt;" style="rhombus;whiteSpace=wrap;html=1;fontColor=#000000;fillColor=#ffffc0;strokeColor=#ff0000;" parent="1" vertex="1">
          <mxGeometry x="129.38" y="90" width="171.25" height="130" as="geometry" />
        </mxCell>
        <mxCell id="VynpJV-AGfuolloux9Fp-15" value="non" style="edgeStyle=orthogonalEdgeStyle;html=1;align=left;verticalAlign=bottom;endArrow=open;endSize=8;strokeColor=#ff0000;rounded=0;" parent="1" edge="1">
          <mxGeometry x="-1" relative="1" as="geometry">
            <mxPoint x="400.63" y="154.55" as="targetPoint" />
            <mxPoint x="300.63" y="154.55" as="sourcePoint" />
          </mxGeometry>
        </mxCell>
        <mxCell id="VynpJV-AGfuolloux9Fp-16" value="oui" style="edgeStyle=orthogonalEdgeStyle;html=1;align=left;verticalAlign=top;endArrow=open;endSize=8;strokeColor=#ff0000;rounded=0;exitX=0.5;exitY=1;exitDx=0;exitDy=0;" parent="1" source="VynpJV-AGfuolloux9Fp-14" edge="1">
          <mxGeometry x="-1" relative="1" as="geometry">
            <mxPoint x="215" y="260" as="targetPoint" />
            <mxPoint x="214.5" y="250" as="sourcePoint" />
          </mxGeometry>
        </mxCell>
        <mxCell id="VynpJV-AGfuolloux9Fp-17" value="&lt;span style=&quot;color: rgb(64, 64, 64); font-family: Inter, system-ui, -apple-system, BlinkMacSystemFont, &amp;quot;Segoe UI&amp;quot;, Roboto, &amp;quot;Noto Sans&amp;quot;, Ubuntu, Cantarell, &amp;quot;Helvetica Neue&amp;quot;, Oxygen, &amp;quot;Open Sans&amp;quot;, sans-serif; font-size: 16.002px; text-align: left;&quot;&gt;Se connecter&lt;/span&gt;" style="rounded=1;whiteSpace=wrap;html=1;arcSize=40;fontColor=#000000;fillColor=#ffffc0;strokeColor=#ff0000;" parent="1" vertex="1">
          <mxGeometry x="400" y="127.5" width="140" height="55" as="geometry" />
        </mxCell>
        <mxCell id="VynpJV-AGfuolloux9Fp-18" value="" style="edgeStyle=orthogonalEdgeStyle;html=1;verticalAlign=bottom;endArrow=open;endSize=8;strokeColor=#ff0000;rounded=0;entryX=0.969;entryY=0.469;entryDx=0;entryDy=0;entryPerimeter=0;" parent="1" edge="1" target="VynpJV-AGfuolloux9Fp-8">
          <mxGeometry relative="1" as="geometry">
            <mxPoint x="300.63" y="297.5" as="targetPoint" />
            <mxPoint x="470.63" y="182.5" as="sourcePoint" />
            <Array as="points">
              <mxPoint x="471" y="243" />
              <mxPoint x="470" y="243" />
              <mxPoint x="470" y="298" />
            </Array>
          </mxGeometry>
        </mxCell>
        <mxCell id="VynpJV-AGfuolloux9Fp-20" value="&lt;span style=&quot;color: rgb(64, 64, 64); font-family: Inter, system-ui, -apple-system, BlinkMacSystemFont, &amp;quot;Segoe UI&amp;quot;, Roboto, &amp;quot;Noto Sans&amp;quot;, Ubuntu, Cantarell, &amp;quot;Helvetica Neue&amp;quot;, Oxygen, &amp;quot;Open Sans&amp;quot;, sans-serif; font-size: 16.002px; text-align: left;&quot;&gt;Cliquer sur &quot;Write a review&quot;&lt;/span&gt;" style="rounded=1;whiteSpace=wrap;html=1;arcSize=40;fontColor=#000000;fillColor=#ffffc0;strokeColor=#ff0000;" parent="1" vertex="1">
          <mxGeometry x="128.12" y="390" width="166.88" height="70" as="geometry" />
        </mxCell>
        <mxCell id="VynpJV-AGfuolloux9Fp-21" value="" style="edgeStyle=orthogonalEdgeStyle;html=1;verticalAlign=bottom;endArrow=open;endSize=8;strokeColor=#ff0000;rounded=0;" parent="1" edge="1">
          <mxGeometry relative="1" as="geometry">
            <mxPoint x="206.19" y="490" as="targetPoint" />
            <mxPoint x="204.45000000000005" y="460" as="sourcePoint" />
            <Array as="points">
              <mxPoint x="206.06" y="460" />
              <mxPoint x="206.06" y="491" />
            </Array>
          </mxGeometry>
        </mxCell>
        <mxCell id="VynpJV-AGfuolloux9Fp-22" value="" style="edgeStyle=orthogonalEdgeStyle;html=1;verticalAlign=bottom;endArrow=open;endSize=8;strokeColor=#ff0000;rounded=0;exitX=0.451;exitY=1.013;exitDx=0;exitDy=0;exitPerimeter=0;entryX=0.467;entryY=0.014;entryDx=0;entryDy=0;entryPerimeter=0;" parent="1" source="VynpJV-AGfuolloux9Fp-8" edge="1" target="VynpJV-AGfuolloux9Fp-20">
          <mxGeometry relative="1" as="geometry">
            <mxPoint x="209" y="360" as="targetPoint" />
            <mxPoint x="209.44" y="340" as="sourcePoint" />
            <Array as="points">
              <mxPoint x="206" y="342" />
            </Array>
          </mxGeometry>
        </mxCell>
        <mxCell id="VynpJV-AGfuolloux9Fp-27" value="" style="edgeStyle=orthogonalEdgeStyle;html=1;align=left;verticalAlign=top;endArrow=open;endSize=8;strokeColor=#ff0000;rounded=0;" parent="1" edge="1">
          <mxGeometry x="-1" relative="1" as="geometry">
            <mxPoint x="205.14000000000001" y="610" as="targetPoint" />
            <mxPoint x="204.99" y="560" as="sourcePoint" />
          </mxGeometry>
        </mxCell>
        <mxCell id="VynpJV-AGfuolloux9Fp-28" value="&lt;span style=&quot;color: rgb(64, 64, 64); font-family: Inter, system-ui, -apple-system, BlinkMacSystemFont, &amp;quot;Segoe UI&amp;quot;, Roboto, &amp;quot;Noto Sans&amp;quot;, Ubuntu, Cantarell, &amp;quot;Helvetica Neue&amp;quot;, Oxygen, &amp;quot;Open Sans&amp;quot;, sans-serif; font-size: 16.002px; text-align: left;&quot;&gt;Soumettre l&#39;avis&lt;/span&gt;" style="rounded=1;whiteSpace=wrap;html=1;arcSize=40;fontColor=#000000;fillColor=#ffffc0;strokeColor=#ff0000;" parent="1" vertex="1">
          <mxGeometry x="127.97999999999999" y="610" width="154.68" height="60" as="geometry" />
        </mxCell>
        <mxCell id="VynpJV-AGfuolloux9Fp-32" value="&lt;span style=&quot;color: rgb(64, 64, 64); font-family: Inter, system-ui, -apple-system, BlinkMacSystemFont, &amp;quot;Segoe UI&amp;quot;, Roboto, &amp;quot;Noto Sans&amp;quot;, Ubuntu, Cantarell, &amp;quot;Helvetica Neue&amp;quot;, Oxygen, &amp;quot;Open Sans&amp;quot;, sans-serif; font-size: 16.002px; text-align: left;&quot;&gt;Avis validé ?&lt;/span&gt;" style="rhombus;whiteSpace=wrap;html=1;fontColor=#000000;fillColor=#ffffc0;strokeColor=#ff0000;" parent="1" vertex="1">
          <mxGeometry x="109.38" y="710" width="201.25" height="100" as="geometry" />
        </mxCell>
        <mxCell id="VynpJV-AGfuolloux9Fp-34" value="non" style="edgeStyle=orthogonalEdgeStyle;html=1;align=left;verticalAlign=top;endArrow=open;endSize=8;strokeColor=#ff0000;rounded=0;exitX=0.493;exitY=1.017;exitDx=0;exitDy=0;exitPerimeter=0;entryX=0.491;entryY=0.013;entryDx=0;entryDy=0;entryPerimeter=0;" parent="1" edge="1" target="VynpJV-AGfuolloux9Fp-53" source="VynpJV-AGfuolloux9Fp-32">
          <mxGeometry x="-1" relative="1" as="geometry">
            <mxPoint x="208" y="860" as="targetPoint" />
            <mxPoint x="208.67" y="820" as="sourcePoint" />
            <Array as="points">
              <mxPoint x="209" y="841" />
            </Array>
          </mxGeometry>
        </mxCell>
        <mxCell id="VynpJV-AGfuolloux9Fp-38" value="" style="edgeStyle=orthogonalEdgeStyle;html=1;verticalAlign=bottom;endArrow=open;endSize=8;strokeColor=#ff0000;rounded=0;" parent="1" edge="1">
          <mxGeometry relative="1" as="geometry">
            <mxPoint x="209.26" y="710" as="targetPoint" />
            <mxPoint x="209.58999999999997" y="670" as="sourcePoint" />
          </mxGeometry>
        </mxCell>
        <mxCell id="VynpJV-AGfuolloux9Fp-39" value="&lt;span style=&quot;color: rgb(64, 64, 64); font-family: Inter, system-ui, -apple-system, BlinkMacSystemFont, &amp;quot;Segoe UI&amp;quot;, Roboto, &amp;quot;Noto Sans&amp;quot;, Ubuntu, Cantarell, &amp;quot;Helvetica Neue&amp;quot;, Oxygen, &amp;quot;Open Sans&amp;quot;, sans-serif; font-size: 16.002px; text-align: left;&quot;&gt;Publication de l&#39;avis&lt;/span&gt;" style="rounded=1;whiteSpace=wrap;html=1;arcSize=40;fontColor=#000000;fillColor=#ffffc0;strokeColor=#ff0000;" parent="1" vertex="1">
          <mxGeometry x="400" y="727.5" width="180" height="65" as="geometry" />
        </mxCell>
        <mxCell id="VynpJV-AGfuolloux9Fp-48" value="oui" style="edgeStyle=orthogonalEdgeStyle;html=1;align=left;verticalAlign=top;endArrow=open;endSize=8;strokeColor=#ff0000;rounded=0;" parent="1" edge="1">
          <mxGeometry x="-1" relative="1" as="geometry">
            <mxPoint x="400" y="760" as="targetPoint" />
            <mxPoint x="310.63" y="759.41" as="sourcePoint" />
          </mxGeometry>
        </mxCell>
        <mxCell id="VynpJV-AGfuolloux9Fp-53" value="&lt;span style=&quot;color: rgb(64, 64, 64); font-family: Inter, system-ui, -apple-system, BlinkMacSystemFont, &amp;quot;Segoe UI&amp;quot;, Roboto, &amp;quot;Noto Sans&amp;quot;, Ubuntu, Cantarell, &amp;quot;Helvetica Neue&amp;quot;, Oxygen, &amp;quot;Open Sans&amp;quot;, sans-serif; font-size: 16.002px; text-align: left;&quot;&gt;Message d&#39;erreur&lt;/span&gt;" style="rounded=1;whiteSpace=wrap;html=1;arcSize=40;fontColor=#000000;fillColor=#ffffc0;strokeColor=#ff0000;" parent="1" vertex="1">
          <mxGeometry x="123.75999999999999" y="862.5" width="172.5" height="67.5" as="geometry" />
        </mxCell>
        <mxCell id="smAhoHIi0Y0n3w3vJCs2-1" value="&lt;span style=&quot;color: rgb(64, 64, 64); font-family: Inter, system-ui, -apple-system, BlinkMacSystemFont, &amp;quot;Segoe UI&amp;quot;, Roboto, &amp;quot;Noto Sans&amp;quot;, Ubuntu, Cantarell, &amp;quot;Helvetica Neue&amp;quot;, Oxygen, &amp;quot;Open Sans&amp;quot;, sans-serif; font-size: 16.002px; text-align: left;&quot;&gt;Saisir l&#39;avis et la note&lt;/span&gt;&lt;div style=&quot;text-align: left;&quot;&gt;&lt;br&gt;&lt;/div&gt;" style="rounded=1;whiteSpace=wrap;html=1;arcSize=40;fontColor=#000000;fillColor=#ffffc0;strokeColor=#ff0000;" vertex="1" parent="1">
          <mxGeometry x="128.12" y="490" width="163.12" height="70" as="geometry" />
        </mxCell>
        <mxCell id="smAhoHIi0Y0n3w3vJCs2-5" value="" style="edgeStyle=orthogonalEdgeStyle;html=1;verticalAlign=bottom;endArrow=open;endSize=8;strokeColor=#ff0000;rounded=0;entryX=0;entryY=0.5;entryDx=0;entryDy=0;" edge="1" parent="1">
          <mxGeometry relative="1" as="geometry">
            <mxPoint x="128.1199999999999" y="524.94" as="targetPoint" />
            <mxPoint x="204.79000000000002" y="929.94" as="sourcePoint" />
            <Array as="points">
              <mxPoint x="205" y="990" />
              <mxPoint x="80" y="990" />
              <mxPoint x="80" y="525" />
            </Array>
          </mxGeometry>
        </mxCell>
        <mxCell id="smAhoHIi0Y0n3w3vJCs2-7" value="" style="edgeStyle=orthogonalEdgeStyle;html=1;verticalAlign=bottom;endArrow=open;endSize=8;strokeColor=#ff0000;rounded=0;" edge="1" parent="1">
          <mxGeometry relative="1" as="geometry">
            <mxPoint x="479" y="930" as="targetPoint" />
            <mxPoint x="479.29" y="792.5" as="sourcePoint" />
          </mxGeometry>
        </mxCell>
      </root>
    </mxGraphModel>
  </diagram>
</mxfile>
